<svg width="50" height="50" viewBox="0 0 50 50" fill="none" xmlns="http://www.w3.org/2000/svg">
<path d="M0.658359 47.3292C0.287875 48.0701 0.588212 48.9712 1.32918 49.3416C2.07015 49.7121 2.97116 49.4118 3.34164 48.6708L0.658359 47.3292ZM25 2L26.3416 1.32918C26.0876 0.821004 25.5682 0.5 25 0.5C24.4318 0.5 23.9124 0.821004 23.6584 1.32918L25 2ZM46.6584 48.6708C47.0288 49.4118 47.9299 49.7121 48.6708 49.3416C49.4118 48.9712 49.7121 48.0701 49.3416 47.3292L46.6584 48.6708ZM3.34164 48.6708L26.3416 2.67082L23.6584 1.32918L0.658359 47.3292L3.34164 48.6708ZM23.6584 2.67082L46.6584 48.6708L49.3416 47.3292L26.3416 1.32918L23.6584 2.67082Z" fill="#787878"/>
<path d="M13 27H37" stroke="#787878" stroke-width="3" stroke-linecap="round"/>
<path d="M0.5 48.5C0.5 49.3284 1.17157 50 2 50C2.82843 50 3.5 49.3284 3.5 48.5H0.5ZM2 2L3.06638 0.945089C2.63867 0.51273 1.99222 0.381417 1.42972 0.612634C0.86722 0.843851 0.5 1.39183 0.5 2H2ZM48 48.5L46.9336 49.5549C47.3613 49.9873 48.0078 50.1186 48.5703 49.8874C49.1328 49.6561 49.5 49.1082 49.5 48.5H48ZM49.5 2C49.5 1.17157 48.8284 0.5 48 0.5C47.1716 0.5 46.5 1.17157 46.5 2H49.5ZM3.5 48.5V2H0.5V48.5H3.5ZM0.933622 3.05491L46.9336 49.5549L49.0664 47.4451L3.06638 0.945089L0.933622 3.05491ZM49.5 48.5V2H46.5V48.5H49.5Z" fill="#787878"/>
</svg>
